<?xml version="1.0" encoding="iso-8859-1"?>
<!-- Generator: Adobe Illustrator 19.0.0, SVG Export Plug-In . SVG Version: 6.00 Build 0)  -->
<svg version="1.1" id="Layer_1" xmlns="http://www.w3.org/2000/svg" xmlns:xlink="http://www.w3.org/1999/xlink" x="0px" y="0px"
	 viewBox="0 0 303.309 303.309" style="enable-background:new 0 0 303.309 303.309;" xml:space="preserve">
<g>
	<rect x="34.454" style="fill:#333E48;" width="234.402" height="303.309"/>
	<rect x="53.667" y="19.213" style="fill:#FFFFFF;" width="195.977" height="264.882"/>
	<rect x="53.667" y="19.213" style="fill:#8CD5EF;" width="195.977" height="84.314"/>
	<g>
		<path style="fill:#00783E;" d="M148.918,67.142C136.847,55.07,137.99,34.354,137.99,34.354s20.713-1.142,32.785,10.93
			c12.071,12.07,10.929,32.785,10.929,32.785S160.989,79.212,148.918,67.142z"/>
		<circle style="fill:#E94F3D;" cx="190.783" cy="65.641" r="24.774"/>
		<path style="fill:#00783E;" d="M226.486,76.57c12.071-12.072,10.928-32.788,10.928-32.788s-20.713-1.142-32.786,10.93
			c-12.071,12.072-10.928,32.786-10.928,32.786S214.415,88.641,226.486,76.57z"/>
	</g>
	<circle style="fill:#FFFFFF;" cx="97.319" cy="61.37" r="25"/>
	<g>
		<rect x="72.319" y="148.074" style="fill:#333E48;" width="89.271" height="13.449"/>
		<rect x="72.319" y="178.331" style="fill:#5C6670;" width="124.178" height="9.607"/>
		<rect x="72.319" y="197.813" style="fill:#5C6670;" width="124.178" height="9.606"/>
		<rect x="72.319" y="217.294" style="fill:#5C6670;" width="124.178" height="9.606"/>
		<rect x="72.319" y="236.776" style="fill:#5C6670;" width="124.178" height="9.607"/>
		<rect x="210.294" y="178.331" style="fill:#333E48;" width="20.695" height="9.607"/>
		<rect x="210.294" y="197.813" style="fill:#333E48;" width="20.695" height="9.606"/>
		<rect x="210.294" y="217.294" style="fill:#333E48;" width="20.695" height="9.606"/>
		<rect x="210.294" y="236.776" style="fill:#333E48;" width="20.695" height="9.607"/>
	</g>
</g>
<g>
</g>
<g>
</g>
<g>
</g>
<g>
</g>
<g>
</g>
<g>
</g>
<g>
</g>
<g>
</g>
<g>
</g>
<g>
</g>
<g>
</g>
<g>
</g>
<g>
</g>
<g>
</g>
<g>
</g>
</svg>
